<svg version="1.1" id="Layer_1" xmlns="http://www.w3.org/2000/svg" xmlns:xlink="http://www.w3.org/1999/xlink" x="0px" y="0px"
	 viewBox="0 0 50 50" style="enable-background:new 0 0 50 50;" xml:space="preserve">
<path class="st0" d="M42.3,5.9H7.7c-3.8,0-7,3.2-7,7V37c0,3.8,3.2,7,7,7h34.6c3.8,0,7-3.2,7-7V13C49.3,9,46.3,5.9,42.3,5.9z
	 M42.3,9.2c0.3,0,0.5,0,0.9,0.1L28.6,25.9c-0.9,1-2.2,1.5-3.6,1.5c-1.4,0-2.7-0.6-3.6-1.5L6.8,9.4c0.3,0,0.5-0.1,0.9-0.1
	C7.7,9.2,42.3,9.2,42.3,9.2z M46,37c0,2-1.7,3.7-3.7,3.7H7.7c-2,0-3.7-1.7-3.7-3.7V13c0-0.5,0.1-1,0.3-1.4l14.6,16.6
	c1.5,1.8,3.7,2.7,6,2.7s4.5-1,6-2.7l14.6-16.6c0.1,0.4,0.3,0.9,0.3,1.4V37H46z"/>
</svg>
